<svg id="Layer_1" data-name="Layer 1" xmlns="http://www.w3.org/2000/svg" viewBox="0 0 360 144"><defs><style>.cls-1{fill:#231f20;}</style></defs><path class="cls-1" d="M78.17,40.54,59.86,99.59v-59H41.68V67.39H26.85V40.54H8.67v62.67H26.85V75.33H41.68v27.88h27l4.19-13.59H92.59l3.88,13.59h19.14L97.34,40.54ZM74.7,83.33l8.36-27.78L90.8,83.33Z"/><path class="cls-1" d="M138.81,75.66h9.05V91.09c0,5-2.25,7.53-6.75,7.53a7.66,7.66,0,0,1-7.78-5.37q-2.06-5.37-2.05-20.35c0-10.68.66-18.06,2.53-21.89,1.57-3.23,4.3-4.9,9.29-5.09,6.24-.24,9.19,3.25,10.31,9.69l.23,2.9,8.17-.11c-.32-15.33-10.27-19.25-20.79-18.92-8.79.28-15.9,3-21.33,9.11s-8.15,14-8.15,23.86q0,15.15,7.69,23.48t21.6,8.34c5.64,0,14.09-2.12,14.09-2.12,2.35-.62,2.58-.71,4.52-1.36a21.79,21.79,0,0,1,2.92-.81V67.72H138.81Z"/><polygon class="cls-1" points="183.83 75.37 202.69 75.37 202.69 67.44 183.83 67.44 183.83 48.48 206.27 48.48 206.27 40.54 165.64 40.54 165.64 103.21 207.94 103.21 207.94 95.27 183.83 95.27 183.83 75.37"/><path class="cls-1" d="M257.21,58.77c.13-5-2-10.66-5.61-13.89-3.14-2.8-7.52-4.44-14.53-4.44h-27v62.67H228.3V76.86l13.91,26.25H262L246,74.45C254.93,69.3,257.05,64.79,257.21,58.77ZM232,70.08H228.3V48.5H232q10.34,0,10.33,10.79T232,70.08Z"/><polygon class="cls-1" points="342.38 40.44 330.9 70.66 318.14 40.44 302.44 40.44 299.27 40.44 255.6 40.44 255.6 46.74 271.08 46.74 271.08 103.11 290.36 103.11 290.36 46.74 301.96 46.74 316.17 79.98 316.17 103.11 334.35 103.11 334.35 79.98 349.64 40.44 342.38 40.44"/><path class="cls-1" d="M344.67,92.36a5.34,5.34,0,1,1-5.34,5.34A5.35,5.35,0,0,1,344.67,92.36Zm0,9.73a4.39,4.39,0,1,0-4.39-4.39A4.39,4.39,0,0,0,344.67,102.09Zm-2.05-7.48H345c1.47,0,2.15.66,2.15,1.84a1.55,1.55,0,0,1-1.46,1.68l1.59,2.58h-1.17l-1.52-2.5h-.82v2.5h-1.12Zm1.12,2.66h.82c.68,0,1.44,0,1.44-.86s-.76-.86-1.44-.85h-.82Z"/></svg>