<?xml version="1.0" encoding="utf-8"?>
<!-- Generator: Adobe Illustrator 15.0.2, SVG Export Plug-In . SVG Version: 6.00 Build 0)  -->
<!DOCTYPE svg PUBLIC "-//W3C//DTD SVG 1.1//EN" "http://www.w3.org/Graphics/SVG/1.1/DTD/svg11.dtd">
<svg version="1.1" xmlns="http://www.w3.org/2000/svg" xmlns:xlink="http://www.w3.org/1999/xlink" x="0px" y="0px" width="300px"
	 height="100px" viewBox="0 0 300 100" enable-background="new 0 0 300 100" xml:space="preserve">
<g id="Layer_2">
	<rect x="-0.458" y="0.017" opacity="0" fill="#FFFFFF" width="300" height="100"/>
</g>
<g id="Layer_1">
	<g>
		<g>
			<path d="M49.022,29.261v14.65c0,1.927,0.18,3.267,0.54,4.018c0.36,0.752,1.012,1.128,1.959,1.128
				c0.915,0,1.683-0.335,2.303-1.005c0.621-0.67,1.062-1.478,1.324-2.426V29.261h5.831v17.052c0,1.339,0.05,2.654,0.148,3.944
				c0.097,1.292,0.277,2.458,0.539,3.503h-4.41l-1.028-3.332h-0.147c-0.621,1.144-1.462,2.091-2.524,2.843
				c-1.062,0.751-2.376,1.127-3.945,1.127c-1.012,0-1.911-0.14-2.695-0.417c-0.783-0.278-1.453-0.76-2.009-1.446
				c-0.555-0.686-0.98-1.624-1.273-2.816c-0.294-1.193-0.44-2.703-0.44-4.533V29.261H49.022z"/>
			<path d="M65.29,30.73c0.98-0.588,2.205-1.061,3.676-1.421c1.469-0.359,3.135-0.538,4.997-0.538c2.775,0,4.712,0.719,5.807,2.155
				c1.094,1.438,1.642,3.479,1.642,6.125c0,1.537-0.042,3.046-0.123,4.533c-0.083,1.486-0.14,2.939-0.172,4.359
				c-0.033,1.421-0.008,2.794,0.074,4.117c0.081,1.322,0.301,2.573,0.662,3.748h-4.753l-0.931-2.988h-0.196
				c-0.523,0.946-1.258,1.731-2.205,2.351c-0.948,0.62-2.14,0.932-3.577,0.932c-1.927,0-3.446-0.645-4.557-1.936
				c-1.111-1.29-1.667-3.014-1.667-5.17c0-2.939,1.045-5.029,3.136-6.272c2.089-1.241,4.916-1.764,8.477-1.567
				c0.164-1.895,0.042-3.266-0.367-4.116c-0.409-0.85-1.283-1.273-2.621-1.273c-0.98,0-1.993,0.114-3.038,0.342
				c-1.046,0.229-1.977,0.555-2.793,0.98L65.29,30.73z M72.297,49.105c0.882,0,1.6-0.22,2.156-0.662
				c0.555-0.441,0.963-0.923,1.225-1.445v-4.066c-0.752-0.099-1.47-0.114-2.156-0.049c-0.686,0.065-1.291,0.212-1.812,0.441
				c-0.524,0.229-0.94,0.564-1.25,1.005c-0.311,0.44-0.464,1.004-0.464,1.689c0,1.013,0.203,1.78,0.611,2.303
				C71.014,48.844,71.577,49.105,72.297,49.105z"/>
			<path d="M97.628,53.759V38.865c0-1.797-0.213-3.054-0.636-3.773c-0.426-0.717-1.145-1.078-2.157-1.078
				c-0.849,0-1.585,0.261-2.205,0.783c-0.622,0.523-1.063,1.177-1.322,1.96v17.002h-5.833V29.261h4.655l0.687,2.841h0.146
				c0.588-0.946,1.388-1.755,2.401-2.425c1.013-0.669,2.336-1.004,3.969-1.004c0.98,0,1.854,0.147,2.621,0.441
				c0.768,0.294,1.413,0.776,1.936,1.445c0.522,0.67,0.915,1.568,1.176,2.695c0.261,1.127,0.392,2.523,0.392,4.19v16.315H97.628z"/>
			<path d="M105.566,29.261h2.694v-4.606l5.831-1.812v6.418h4.753v5.194h-4.753v10.681c0,1.405,0.138,2.401,0.416,2.989
				c0.276,0.589,0.776,0.882,1.495,0.882c0.49,0,0.93-0.049,1.323-0.146c0.392-0.099,0.816-0.245,1.274-0.441l0.735,4.655
				c-0.719,0.359-1.551,0.661-2.499,0.906s-1.944,0.368-2.989,0.368c-1.861,0-3.258-0.54-4.189-1.618
				c-0.932-1.077-1.396-2.891-1.396-5.438V34.455h-2.694V29.261z"/>
			<path d="M127.369,29.261v14.65c0,1.927,0.179,3.267,0.539,4.018c0.36,0.752,1.012,1.128,1.96,1.128
				c0.914,0,1.682-0.335,2.303-1.005c0.621-0.67,1.062-1.478,1.323-2.426V29.261h5.832v17.052c0,1.339,0.048,2.654,0.147,3.944
				c0.097,1.292,0.276,2.458,0.538,3.503h-4.409l-1.029-3.332h-0.147c-0.621,1.144-1.462,2.091-2.524,2.843
				c-1.062,0.751-2.375,1.127-3.944,1.127c-1.013,0-1.912-0.14-2.695-0.417c-0.783-0.278-1.453-0.76-2.009-1.446
				c-0.556-0.686-0.979-1.624-1.274-2.816c-0.294-1.193-0.441-2.703-0.441-4.533V29.261H127.369z"/>
			<path d="M154.906,53.759V39.501c0-2.058-0.164-3.487-0.49-4.288c-0.327-0.799-0.964-1.2-1.911-1.2
				c-0.784,0-1.429,0.253-1.935,0.759c-0.507,0.507-0.891,1.12-1.152,1.838v17.148h-5.831V29.261h4.508l0.734,2.939h0.147
				c0.62-1.011,1.397-1.853,2.327-2.523c0.932-0.669,2.164-1.004,3.7-1.004c1.274,0,2.311,0.278,3.112,0.833
				c0.799,0.556,1.428,1.536,1.886,2.94c0.62-1.176,1.438-2.098,2.45-2.769c1.013-0.669,2.206-1.004,3.577-1.004
				c1.079,0,2.001,0.139,2.769,0.417c0.766,0.278,1.389,0.759,1.863,1.445c0.473,0.686,0.824,1.625,1.053,2.818
				c0.229,1.192,0.342,2.703,0.342,4.532v15.875h-5.83V38.865c0-1.666-0.146-2.891-0.441-3.676c-0.293-0.784-0.948-1.175-1.96-1.175
				c-0.817,0-1.478,0.237-1.983,0.71c-0.508,0.474-0.874,1.119-1.103,1.936v17.1H154.906z"/>
			<path d="M194.691,39.6l0.757,3.048l0.06-0.012l0.849-3.085l4.998-20.089h6.516l-10.387,34.543h-4.704l-10.485-34.543h7.301
				L194.691,39.6z"/>
			<path d="M207.236,30.73c0.979-0.588,2.205-1.061,3.675-1.421c1.47-0.359,3.135-0.538,4.997-0.538
				c2.776,0,4.711,0.719,5.806,2.155c1.095,1.438,1.643,3.479,1.643,6.125c0,1.537-0.041,3.046-0.123,4.533
				c-0.082,1.486-0.139,2.939-0.171,4.359c-0.033,1.421-0.009,2.794,0.073,4.117c0.081,1.322,0.301,2.573,0.662,3.748h-4.753
				l-0.93-2.988h-0.197c-0.522,0.946-1.258,1.731-2.206,2.351c-0.947,0.62-2.139,0.932-3.577,0.932
				c-1.927,0-3.447-0.645-4.556-1.936c-1.11-1.29-1.666-3.014-1.666-5.17c0-2.939,1.045-5.029,3.136-6.272
				c2.09-1.241,4.916-1.764,8.477-1.567c0.163-1.895,0.04-3.266-0.367-4.116c-0.41-0.85-1.283-1.273-2.622-1.273
				c-0.98,0-1.993,0.114-3.038,0.342c-1.046,0.229-1.977,0.555-2.792,0.98L207.236,30.73z M214.242,49.105
				c0.883,0,1.6-0.22,2.156-0.662c0.555-0.441,0.963-0.923,1.225-1.445v-4.066c-0.751-0.099-1.47-0.114-2.156-0.049
				c-0.686,0.065-1.291,0.212-1.812,0.441c-0.523,0.229-0.939,0.564-1.25,1.005c-0.311,0.44-0.465,1.004-0.465,1.689
				c0,1.013,0.203,1.78,0.612,2.303C212.96,48.844,213.523,49.105,214.242,49.105z"/>
			<path d="M233.352,45.821c0,1.144,0.114,1.961,0.343,2.451c0.227,0.489,0.604,0.735,1.126,0.735c0.294,0,0.596-0.032,0.906-0.098
				c0.31-0.064,0.662-0.179,1.054-0.343l0.539,4.704c-0.392,0.261-1.062,0.506-2.009,0.734s-1.911,0.344-2.891,0.344
				c-1.633,0-2.859-0.41-3.674-1.225c-0.817-0.816-1.226-2.206-1.226-4.166V19.461h5.832V45.821z"/>
			<path d="M245.257,45.821c0,1.144,0.114,1.961,0.343,2.451c0.228,0.489,0.604,0.735,1.127,0.735c0.293,0,0.595-0.032,0.906-0.098
				c0.31-0.064,0.661-0.179,1.053-0.343l0.539,4.704c-0.392,0.261-1.062,0.506-2.008,0.734c-0.948,0.229-1.912,0.344-2.892,0.344
				c-1.634,0-2.858-0.41-3.674-1.225c-0.817-0.816-1.226-2.206-1.226-4.166V19.461h5.831V45.821z"/>
			<path d="M267.796,51.947c-0.817,0.72-1.928,1.307-3.332,1.765c-1.405,0.457-2.875,0.686-4.41,0.686
				c-1.7,0-3.161-0.294-4.386-0.882c-1.225-0.588-2.23-1.437-3.013-2.548c-0.785-1.111-1.365-2.458-1.739-4.044
				c-0.376-1.583-0.564-3.388-0.564-5.413c0-4.41,0.874-7.668,2.622-9.775c1.746-2.107,4.171-3.16,7.276-3.16
				c1.044,0,2.057,0.155,3.038,0.465c0.98,0.311,1.854,0.833,2.621,1.568c0.767,0.734,1.388,1.715,1.861,2.94
				c0.474,1.225,0.711,2.768,0.711,4.63c0,0.719-0.042,1.487-0.123,2.303c-0.082,0.817-0.206,1.699-0.368,2.647h-11.907
				c0.065,2.024,0.49,3.576,1.274,4.654c0.783,1.078,2.041,1.617,3.772,1.617c1.045,0,2.001-0.163,2.866-0.49
				c0.865-0.327,1.527-0.669,1.984-1.029L267.796,51.947z M260.153,33.572c-1.242,0-2.174,0.499-2.793,1.495
				c-0.621,0.997-0.981,2.393-1.078,4.189h6.761c0.097-1.862-0.098-3.275-0.587-4.238C261.965,34.055,261.198,33.572,260.153,33.572
				z"/>
			<path d="M279.556,43.029l0.638,3.822h0.244l0.441-3.871l2.841-13.719h5.979l-6.125,22.098c-0.556,1.928-1.078,3.658-1.567,5.193
				c-0.491,1.536-1.013,2.842-1.569,3.92c-0.555,1.077-1.184,1.902-1.886,2.474c-0.703,0.571-1.543,0.857-2.523,0.857
				c-0.686,0-1.347-0.056-1.985-0.169c-0.637-0.113-1.185-0.3-1.641-0.559l0.979-4.955c0.425,0.164,0.857,0.236,1.299,0.22
				c0.441-0.017,0.849-0.181,1.224-0.494c0.376-0.313,0.711-0.801,1.005-1.46c0.293-0.661,0.539-1.536,0.735-2.627l-8.525-24.499
				h7.006L279.556,43.029z"/>
		</g>
		<g>
			<path fill="#231F20" d="M66.841,68.26c0-0.404-0.05-3.436-0.067-3.689c-0.033-0.404-0.202-0.572-0.842-0.572h-0.977
				c-0.084,0-0.135-0.034-0.135-0.101v-0.455c0-0.067,0.051-0.101,0.118-0.101c0.202,0,1.061,0.051,2.628,0.051
				c1.498,0,2.038-0.051,2.273-0.051c0.084,0,0.118,0.051,0.118,0.118v0.422c0,0.083-0.05,0.118-0.134,0.118h-0.792
				c-0.336,0-0.589,0.134-0.589,0.472c0,0.169-0.051,3.892-0.051,4.093v1.297c0,0.169,0.051,4.06,0.051,4.246
				c0,0.522,0.253,0.606,0.792,0.606h0.691c0.084,0,0.135,0.034,0.135,0.119v0.437c0,0.067-0.05,0.101-0.151,0.101
				c-0.203,0-0.876-0.05-2.341-0.05c-1.601,0-2.326,0.05-2.511,0.05c-0.084,0-0.135-0.034-0.135-0.101v-0.455
				c0-0.068,0.051-0.102,0.135-0.102h0.943c0.337,0,0.69-0.05,0.758-0.488c0.034-0.253,0.084-3.892,0.084-4.785V68.26z"/>
			<path fill="#231F20" d="M77.957,65.582c0-0.994-0.505-1.55-1.111-1.567l-0.691-0.017c-0.084,0-0.102-0.068-0.102-0.118v-0.438
				c0-0.067,0.018-0.101,0.102-0.101c0.084,0,0.219,0.017,0.472,0.017c0.252,0.017,0.624,0.034,1.196,0.034
				c0.573,0,0.926-0.034,1.129-0.034c0.218,0,0.354,0.067,0.488,0.22c0.084,0.1,3.353,4.346,3.538,4.582
				c0.186,0.235,3.032,3.723,3.437,4.261h0.067v-2.005c0-1.499-0.017-2.324-0.05-3.167c-0.017-0.657-0.101-2.308-0.203-2.594
				c-0.135-0.421-0.455-0.657-0.926-0.657h-0.539c-0.067,0-0.101-0.034-0.101-0.118v-0.438c0-0.067,0.034-0.101,0.101-0.101
				c0.236,0,0.775,0.051,1.853,0.051c1.011,0,1.416-0.051,1.634-0.051c0.118,0,0.135,0.051,0.135,0.118v0.422
				c0,0.067-0.034,0.118-0.102,0.118h-0.455c-0.455,0-0.624,0.286-0.657,0.926c-0.067,1.129-0.067,2.796-0.067,3.891v6.301
				c0,0.236-0.017,0.404-0.084,0.404c-0.202,0-0.354-0.202-0.404-0.27c-0.017-0.034-1.011-1.281-2.055-2.594
				c-1.18-1.465-2.409-3.016-2.51-3.117c-0.186-0.168-3.285-4.059-3.386-4.194h-0.101v3.74c0,1.567,0.135,4.312,0.168,4.65
				c0.068,0.657,0.168,0.977,0.623,0.977h0.506c0.118,0,0.134,0.051,0.134,0.152v0.371c0,0.101-0.017,0.135-0.134,0.135
				c-0.168,0-1.18-0.05-1.634-0.05c-0.354,0-1.516,0.05-1.685,0.05c-0.067,0-0.084-0.034-0.084-0.118v-0.438
				c0-0.05,0.018-0.102,0.102-0.102h0.573c0.489,0,0.673-0.202,0.757-1.027c0.034-0.321,0.067-2.241,0.067-5.24V65.582z"/>
			<path fill="#231F20" d="M94.329,63.459c0-0.084,0.016-0.118,0.117-0.118c0.168,0,0.725,0.051,2.039,0.051
				c1.416,0,2.173-0.051,2.325-0.051c0.152,0,0.168,0.051,0.168,0.118v0.388c0,0.084-0.017,0.152-0.135,0.152h-0.808
				c-0.472,0-0.708,0.151-0.708,0.438c0,0.134,0.017,0.336,0.067,0.572c0.101,0.607,0.725,2.612,1.028,3.554
				c0.202,0.64,1.179,3.538,1.566,4.566h0.033c0.354-0.792,1.668-4.262,1.803-4.65c0.168-0.455,0.809-2.392,1.062-3.133
				c0.135-0.421,0.236-0.724,0.236-0.96c0-0.202-0.119-0.387-0.54-0.387h-0.438c-0.067,0-0.084-0.051-0.084-0.152v-0.388
				c0-0.084,0.017-0.118,0.101-0.118c0.152,0,0.927,0.051,1.988,0.051c1.23,0,1.651-0.051,1.803-0.051
				c0.101,0,0.118,0.034,0.118,0.118v0.422c0,0.067-0.017,0.118-0.118,0.118h-0.455c-0.556,0-0.876,0.27-1.196,0.657
				c-0.438,0.539-1.786,3.992-2.072,4.7c-0.202,0.557-2.375,5.913-2.459,6.082c-0.067,0.134-0.151,0.218-0.236,0.218
				c-0.135,0-0.202-0.167-0.287-0.387c-0.539-1.549-1.903-5.39-2.122-5.997l-0.168-0.573c-0.405-1.196-1.197-3.638-1.416-4.144
				c-0.168-0.387-0.337-0.556-0.69-0.556h-0.438c-0.068,0-0.084-0.051-0.084-0.118V63.459z"/>
			<path fill="#231F20" d="M114.54,68.867c0.134,0,1.938-0.067,2.14-0.102c0.488-0.084,0.624-0.219,0.775-0.741
				c0.05-0.168,0.119-0.505,0.134-0.826c0-0.083,0.051-0.118,0.119-0.118l0.42,0.017c0.084,0,0.118,0.067,0.102,0.134
				c-0.051,0.287-0.051,1.667-0.051,1.921c0,0.59,0.067,1.398,0.101,1.751c0,0.084-0.034,0.119-0.101,0.135l-0.37,0.051
				c-0.084,0.017-0.119-0.034-0.135-0.152c-0.033-0.219-0.134-0.607-0.185-0.792c-0.101-0.354-0.287-0.607-0.725-0.657
				c-0.792-0.083-1.955-0.083-2.224-0.083v1.044c0,0.91,0.033,2.544,0.033,2.881c0.018,0.876,0.438,1.213,0.961,1.314
				c0.337,0.067,0.825,0.118,1.246,0.118c0.287,0,1.129-0.018,1.483-0.051c0.286-0.033,1.027-0.218,1.465-0.589
				c0.202-0.168,1.146-1.382,1.382-1.769c0.05-0.084,0.101-0.152,0.202-0.101l0.27,0.152c0.083,0.05,0.083,0.101,0.034,0.235
				l-0.893,2.477c-0.051,0.151-0.169,0.252-0.372,0.252c-0.083,0-0.455-0.017-1.465-0.034c-1.011,0-2.645-0.017-5.273-0.017
				c-0.623,0-1.095,0.017-1.432,0.017c-0.354,0.017-0.572,0.034-0.725,0.034c-0.101,0-0.151-0.034-0.151-0.118v-0.455
				c0-0.067,0.05-0.084,0.168-0.084h0.674c0.775,0,0.843-0.118,0.843-0.741v-3.992v-1.65c0-1.398-0.034-3.504-0.051-3.673
				c-0.067-0.54-0.236-0.657-0.859-0.657h-0.606c-0.084,0-0.135-0.018-0.135-0.118v-0.456c0-0.05,0.034-0.084,0.118-0.084
				c0.371,0,0.96,0.051,2.072,0.051h0.742c1.668,0,3.335-0.017,5.002-0.017c0.27,0,0.59-0.034,0.674-0.034
				c0.084,0,0.118,0.034,0.134,0.084c0.068,0.236,0.809,2.544,0.86,2.713c0.017,0.067,0.017,0.117-0.051,0.151l-0.252,0.134
				c-0.051,0.034-0.118-0.017-0.135-0.05c-0.034-0.067-1.281-1.668-1.685-1.921c-0.354-0.236-0.826-0.438-1.28-0.455l-2.999-0.068
				V68.867z"/>
			<path fill="#231F20" d="M128.925,74.695c-0.203-0.151-0.304-0.202-0.388-0.202c-0.102,0-0.168,0.117-0.27,0.286
				c-0.101,0.186-0.186,0.203-0.304,0.203c-0.1,0-0.186-0.084-0.152-0.27c0.067-0.421,0.236-2.561,0.288-3.049
				c0.016-0.101,0.05-0.101,0.118-0.101l0.252,0.017c0.067,0,0.102,0.034,0.102,0.135c0.016,0.539,0.05,1.095,0.606,1.954
				c0.504,0.792,1.432,1.247,2.358,1.247c1.011,0,2.291-0.623,2.291-2.139c0-1.735-1.247-2.375-2.594-2.847
				c-0.522-0.185-1.735-0.606-2.459-1.365c-0.556-0.555-0.842-1.348-0.842-2.459c0-0.842,0.522-1.667,1.044-2.156
				c0.606-0.573,1.449-0.809,2.358-0.809c0.96,0,1.701,0.286,1.988,0.421c0.152,0.085,0.236,0.067,0.32-0.017l0.219-0.202
				c0.084-0.067,0.135-0.102,0.219-0.102c0.085,0,0.135,0.135,0.135,0.287c0,0.589,0.219,2.308,0.236,2.679
				c0,0.084-0.017,0.117-0.084,0.135l-0.202,0.05c-0.051,0.017-0.085,0-0.102-0.05c-0.135-0.489-0.353-1.146-1.044-1.87
				c-0.455-0.489-1.045-0.724-1.836-0.724c-1.5,0-2.039,1.112-2.039,1.971c0,0.472,0.102,1.027,0.522,1.465
				c0.489,0.488,1.432,0.859,1.92,1.011c1.163,0.37,2.106,0.657,2.712,1.398c0.438,0.521,0.742,1.179,0.742,2.291
				c0,1.988-1.213,3.689-3.437,3.689C130.423,75.571,129.598,75.217,128.925,74.695z"/>
			<path fill="#231F20" d="M145.7,63.999h-0.421c-0.539,0-2.004,0-2.662,0.202c-0.757,0.236-1.264,1.415-1.499,1.954
				c-0.033,0.084-0.084,0.101-0.168,0.084l-0.303-0.084c-0.051-0.016-0.101-0.034-0.067-0.134c0.167-0.606,0.758-2.78,0.791-2.965
				c0.034-0.218,0.102-0.27,0.168-0.27c0.084,0,0.135,0.017,0.202,0.068l0.22,0.151c0.303,0.219,0.47,0.27,0.959,0.287
				c0.893,0.033,1.601,0.101,3.184,0.101h0.809c1.836,0,2.561-0.068,3.386-0.101c0.371-0.017,0.59-0.067,0.876-0.236l0.32-0.202
				c0.084-0.051,0.135-0.068,0.202-0.068c0.084,0,0.118,0.051,0.151,0.27c0.034,0.203,0.354,2.291,0.489,3.032
				c0.017,0.084-0.017,0.119-0.102,0.135l-0.269,0.067c-0.067,0.017-0.084,0-0.135-0.118c-0.134-0.32-0.64-1.617-1.196-1.887
				c-0.504-0.252-2.089-0.286-2.914-0.286h-0.472V68.8c0,0.235,0,4.953,0.018,5.239c0.034,0.42,0.168,0.673,0.572,0.673h1.062
				c0.152,0,0.169,0.051,0.169,0.168v0.354c0,0.084-0.017,0.135-0.169,0.135c-0.168,0-0.707-0.05-2.358-0.05
				c-1.618,0-2.325,0.05-2.561,0.05c-0.135,0-0.151-0.068-0.151-0.168v-0.32c0-0.117,0.016-0.168,0.117-0.168h1.146
				c0.337,0,0.539-0.202,0.556-0.403c0.05-0.49,0.05-5.661,0.05-5.98V63.999z"/>
			<path fill="#231F20" d="M165.76,72.624c0.236-0.252,1.921-4.278,2.056-4.499c0.117-0.235,1.953-4.194,2.005-4.532
				c0.033-0.185,0.218-0.201,0.387-0.201c2.241,0,2.813-0.051,2.999-0.051c0.084,0,0.1,0.051,0.1,0.118v0.388
				c0,0.101-0.016,0.152-0.134,0.152h-0.741c-0.505,0-0.556,0.303-0.556,0.69c0,0.488-0.05,2.898-0.05,4.026v1.179
				c0,0.843,0.05,3.571,0.05,3.908c0,0.641,0.152,0.91,0.573,0.91h0.994c0.101,0,0.118,0.051,0.118,0.119v0.386
				c0,0.102-0.018,0.152-0.152,0.152c-0.201,0-0.505-0.05-2.358-0.05c-1.549,0-2.206,0.05-2.426,0.05
				c-0.117,0-0.135-0.05-0.135-0.152v-0.386c0-0.085,0.018-0.119,0.135-0.119h1.145c0.288,0,0.439-0.101,0.473-0.606
				c0.017-0.202,0.034-3.133,0.034-4.38v-1.078c0-1.111,0-4.109-0.051-4.262h-0.033c-0.169,0.219-2.561,5.526-2.646,5.694
				c-0.101,0.202-1.97,4.498-2.038,4.649c-0.067,0.151-0.202,0.404-0.337,0.404c-0.101,0-0.186-0.135-0.253-0.302
				c-0.05-0.119-2.206-5.442-2.291-5.645c-0.32-0.775-1.853-4.547-2.089-4.75c-0.067,0.235-0.101,4.498-0.101,4.7
				c0,0.202-0.016,3.756,0.034,4.346c0.084,0.96,0.236,1.229,0.775,1.229h0.843c0.102,0,0.118,0.051,0.118,0.119v0.42
				c0,0.067-0.016,0.118-0.151,0.118c-0.186,0-0.641-0.05-2.038-0.05c-1.432,0-2.022,0.05-2.173,0.05
				c-0.135,0-0.152-0.017-0.152-0.152v-0.404c0-0.05,0.017-0.102,0.101-0.102h0.893c0.64,0,0.792-0.438,0.893-1.011
				c0.203-1.195,0.253-5.508,0.253-5.811c0-0.236,0-2.78-0.017-3.268c-0.016-0.388,0-0.624-0.69-0.624h-1.028
				c-0.101,0-0.117-0.051-0.117-0.118v-0.438c0-0.05,0.017-0.101,0.117-0.101c0.169,0,0.624,0.051,2.056,0.051
				c0.792,0,1.23-0.051,1.432-0.051c0.252,0,0.354,0.067,0.438,0.286L165.76,72.624z"/>
			<path fill="#231F20" d="M182.873,68.867c0.134,0,1.937-0.067,2.139-0.102c0.488-0.084,0.623-0.219,0.775-0.741
				c0.05-0.168,0.118-0.505,0.134-0.826c0-0.083,0.051-0.118,0.118-0.118l0.421,0.017c0.084,0,0.119,0.067,0.102,0.134
				c-0.05,0.287-0.05,1.667-0.05,1.921c0,0.59,0.067,1.398,0.101,1.751c0,0.084-0.033,0.119-0.101,0.135l-0.371,0.051
				c-0.083,0.017-0.118-0.034-0.135-0.152c-0.033-0.219-0.134-0.607-0.185-0.792c-0.102-0.354-0.287-0.607-0.725-0.657
				c-0.792-0.083-1.954-0.083-2.223-0.083v1.044c0,0.91,0.033,2.544,0.033,2.881c0.017,0.876,0.438,1.213,0.959,1.314
				c0.338,0.067,0.826,0.118,1.247,0.118c0.287,0,1.129-0.018,1.483-0.051c0.286-0.033,1.027-0.218,1.465-0.589
				c0.202-0.168,1.146-1.382,1.382-1.769c0.05-0.084,0.1-0.152,0.202-0.101l0.27,0.152c0.083,0.05,0.083,0.101,0.033,0.235
				l-0.893,2.477c-0.051,0.151-0.169,0.252-0.371,0.252c-0.083,0-0.455-0.017-1.465-0.034c-1.011,0-2.645-0.017-5.272-0.017
				c-0.624,0-1.096,0.017-1.432,0.017c-0.354,0.017-0.573,0.034-0.725,0.034c-0.101,0-0.151-0.034-0.151-0.118v-0.455
				c0-0.067,0.05-0.084,0.168-0.084h0.674c0.775,0,0.842-0.118,0.842-0.741v-3.992v-1.65c0-1.398-0.034-3.504-0.05-3.673
				c-0.067-0.54-0.236-0.657-0.859-0.657h-0.606c-0.084,0-0.135-0.018-0.135-0.118v-0.456c0-0.05,0.033-0.084,0.118-0.084
				c0.371,0,0.96,0.051,2.072,0.051h0.741c1.668,0,3.335-0.017,5.003-0.017c0.27,0,0.59-0.034,0.675-0.034
				c0.083,0,0.117,0.034,0.134,0.084c0.067,0.236,0.808,2.544,0.858,2.713c0.018,0.067,0.018,0.117-0.05,0.151l-0.252,0.134
				c-0.051,0.034-0.118-0.017-0.135-0.05c-0.034-0.067-1.28-1.668-1.685-1.921c-0.353-0.236-0.825-0.438-1.28-0.455l-2.998-0.068
				V68.867z"/>
			<path fill="#231F20" d="M197.121,65.582c0-0.994-0.505-1.55-1.111-1.567l-0.69-0.017c-0.085,0-0.102-0.068-0.102-0.118v-0.438
				c0-0.067,0.017-0.101,0.102-0.101c0.084,0,0.219,0.017,0.471,0.017c0.253,0.017,0.624,0.034,1.196,0.034s0.927-0.034,1.129-0.034
				c0.218,0,0.354,0.067,0.488,0.22c0.084,0.1,3.353,4.346,3.538,4.582c0.186,0.235,3.032,3.723,3.438,4.261h0.067v-2.005
				c0-1.499-0.017-2.324-0.051-3.167c-0.016-0.657-0.101-2.308-0.202-2.594c-0.135-0.421-0.456-0.657-0.927-0.657h-0.54
				c-0.067,0-0.101-0.034-0.101-0.118v-0.438c0-0.067,0.034-0.101,0.101-0.101c0.236,0,0.776,0.051,1.854,0.051
				c1.011,0,1.416-0.051,1.634-0.051c0.117,0,0.135,0.051,0.135,0.118v0.422c0,0.067-0.034,0.118-0.102,0.118h-0.455
				c-0.455,0-0.623,0.286-0.657,0.926c-0.068,1.129-0.068,2.796-0.068,3.891v6.301c0,0.236-0.017,0.404-0.084,0.404
				c-0.202,0-0.354-0.202-0.404-0.27c-0.017-0.034-1.011-1.281-2.055-2.594c-1.18-1.465-2.409-3.016-2.511-3.117
				c-0.185-0.168-3.285-4.059-3.386-4.194h-0.101v3.74c0,1.567,0.135,4.312,0.168,4.65c0.068,0.657,0.168,0.977,0.624,0.977h0.505
				c0.118,0,0.135,0.051,0.135,0.152v0.371c0,0.101-0.018,0.135-0.135,0.135c-0.168,0-1.179-0.05-1.634-0.05
				c-0.354,0-1.516,0.05-1.685,0.05c-0.067,0-0.084-0.034-0.084-0.118v-0.438c0-0.05,0.017-0.102,0.101-0.102h0.572
				c0.489,0,0.674-0.202,0.759-1.027c0.033-0.321,0.067-2.241,0.067-5.24V65.582z"/>
			<path fill="#231F20" d="M218.023,63.999h-0.421c-0.539,0-2.004,0-2.662,0.202c-0.758,0.236-1.264,1.415-1.499,1.954
				c-0.035,0.084-0.084,0.101-0.169,0.084l-0.304-0.084c-0.05-0.016-0.102-0.034-0.067-0.134c0.168-0.606,0.758-2.78,0.792-2.965
				c0.034-0.218,0.101-0.27,0.168-0.27c0.084,0,0.135,0.017,0.202,0.068l0.22,0.151c0.303,0.219,0.471,0.27,0.959,0.287
				c0.893,0.033,1.601,0.101,3.184,0.101h0.809c1.835,0,2.561-0.068,3.386-0.101c0.371-0.017,0.59-0.067,0.876-0.236l0.32-0.202
				c0.084-0.051,0.135-0.068,0.202-0.068c0.084,0,0.119,0.051,0.152,0.27c0.034,0.203,0.354,2.291,0.489,3.032
				c0.017,0.084-0.017,0.119-0.101,0.135l-0.27,0.067c-0.067,0.017-0.084,0-0.135-0.118c-0.135-0.32-0.639-1.617-1.195-1.887
				c-0.506-0.252-2.089-0.286-2.914-0.286h-0.472V68.8c0,0.235,0,4.953,0.017,5.239c0.033,0.42,0.168,0.673,0.573,0.673h1.061
				c0.152,0,0.168,0.051,0.168,0.168v0.354c0,0.084-0.016,0.135-0.168,0.135c-0.167,0-0.707-0.05-2.358-0.05
				c-1.617,0-2.325,0.05-2.561,0.05c-0.135,0-0.152-0.068-0.152-0.168v-0.32c0-0.117,0.017-0.168,0.118-0.168h1.145
				c0.337,0,0.539-0.202,0.557-0.403c0.05-0.49,0.05-5.661,0.05-5.98V63.999z"/>
			<path fill="#231F20" d="M231.868,74.695c-0.201-0.151-0.303-0.202-0.387-0.202c-0.101,0-0.168,0.117-0.27,0.286
				c-0.101,0.186-0.185,0.203-0.303,0.203c-0.101,0-0.185-0.084-0.151-0.27c0.067-0.421,0.236-2.561,0.287-3.049
				c0.016-0.101,0.05-0.101,0.117-0.101l0.253,0.017c0.068,0,0.102,0.034,0.102,0.135c0.016,0.539,0.05,1.095,0.606,1.954
				c0.506,0.792,1.432,1.247,2.358,1.247c1.01,0,2.291-0.623,2.291-2.139c0-1.735-1.247-2.375-2.594-2.847
				c-0.521-0.185-1.735-0.606-2.459-1.365c-0.556-0.555-0.842-1.348-0.842-2.459c0-0.842,0.522-1.667,1.044-2.156
				c0.606-0.573,1.448-0.809,2.358-0.809c0.96,0,1.702,0.286,1.988,0.421c0.151,0.085,0.235,0.067,0.32-0.017l0.219-0.202
				c0.085-0.067,0.135-0.102,0.219-0.102c0.084,0,0.134,0.135,0.134,0.287c0,0.589,0.219,2.308,0.236,2.679
				c0,0.084-0.017,0.117-0.084,0.135l-0.202,0.05c-0.05,0.017-0.084,0-0.101-0.05c-0.134-0.489-0.354-1.146-1.044-1.87
				c-0.455-0.489-1.044-0.724-1.836-0.724c-1.499,0-2.039,1.112-2.039,1.971c0,0.472,0.101,1.027,0.522,1.465
				c0.489,0.488,1.433,0.859,1.921,1.011c1.162,0.37,2.105,0.657,2.712,1.398c0.438,0.521,0.741,1.179,0.741,2.291
				c0,1.988-1.213,3.689-3.437,3.689C233.367,75.571,232.542,75.217,231.868,74.695z"/>
		</g>
		<g>
			<path d="M28.045,54.075c-0.055,0.338-0.119,0.682-0.202,1.065c-0.088,0.412-0.24,0.92-0.36,1.339
				c-0.098,0.417-0.239,0.742-0.382,1.268c-0.264,0.956-0.481,1.853-0.594,2.842c-0.107,0.987-0.182,2-0.036,3.084
				c0.084,0.539,0.193,1.108,0.476,1.677c0.266,0.561,0.708,1.16,1.343,1.504c0.624,0.364,1.319,0.404,1.868,0.307
				c0.56-0.104,1.035-0.318,1.451-0.603c0.081-0.056,0.139-0.147,0.149-0.252c0.015-0.188-0.124-0.354-0.312-0.371
				c-0.915-0.084-1.738-0.353-1.921-0.759c-0.193-0.347-0.262-0.928-0.22-1.671c0.076-1.473,0.603-3.156,1.192-4.686
				c0.141-0.344,0.354-0.837,0.518-1.289c0.172-0.454,0.318-0.914,0.46-1.379c0.28-0.93,0.529-1.882,0.676-2.898
				c0.065-0.469,0.123-0.945,0.143-1.448c-0.898,0.655-1.857,1.224-2.875,1.704C28.967,53.723,28.508,53.909,28.045,54.075z"/>
			<g>
				<path d="M32.17,51.893c-0.185,0.132-0.371,0.263-0.561,0.389C31.799,52.156,31.985,52.024,32.17,51.893z"/>
				<path d="M28.73,53.812c-0.227,0.093-0.455,0.18-0.684,0.262C28.276,53.992,28.504,53.906,28.73,53.812z"/>
				<path d="M31.601,52.286c-0.694,0.457-1.421,0.865-2.183,1.224C30.18,53.151,30.907,52.742,31.601,52.286z"/>
				<path d="M38.47,29.143c-0.986-2.242-2.275-4.15-3.866-5.722c-1.593-1.572-3.412-2.784-5.46-3.635
					c-2.045-0.852-4.116-1.278-6.208-1.278c-1.941,0-3.927,0.435-5.959,1.304c-2.03,0.866-3.865,2.104-5.503,3.707
					c-1.638,1.606-2.979,3.538-4.028,5.798c-1.044,2.259-1.568,4.782-1.568,7.563c0,2.262,0.379,4.406,1.138,6.438
					c0.757,2.031,1.796,3.831,3.115,5.403c1.319,1.571,2.85,2.882,4.593,3.929c1.745,1.05,3.602,1.722,5.573,2.015
					c0.406,0.042,0.82,0.19,1.092,0.147c0.454,0.098,0.97,0.146,1.546,0.146c1.771,0,3.475-0.296,5.109-0.883
					c0.062-0.387,0.112-0.766,0.156-1.184c0.074-0.77,0.052-1.59-0.198-2.066c0,0-0.071-0.134-0.218-0.29
					c-3.045,2.557-7.843,0.496-7.843,0.496c-2.926-0.988-2.661-4.832-2.661-4.832c0.034-3.059-2.259-6.388-2.259-6.388
					c-2.099-3.279-1.467-8.17-1.467-8.17c1.38-9.952,10.574-9.148,10.574-9.148c1.702-1.68,3.02-1.149,3.02-1.149
					c-0.637,0.638-0.892,0.979-0.511,1.447c0.733,0.896,1.893,1.872,1.893,1.872c1.32,1.488,0.596,3.02,0.596,3.02
					c0,0.467,0.851,1.403,0.851,1.403c-0.171,0.256-0.681,0.299-0.681,0.299c-0.935,0.999-1.743,0.467-1.743,0.467
					c-0.938,0.007-1.744-0.137-1.744-0.137c-1.093-0.201-0.771-0.815-1.381-0.892c-1.582-0.201-1.553,0.375-1.553,0.375
					c-0.403,0.921,1.582,1.408,1.582,1.408c8.458,2.274,7.894,9.678,7.894,9.678c-0.032,3.312-0.82,5.558-1.666,7.022
					c0.14,0.112,0.272,0.23,0.388,0.357c0.679,0.75,0.937,1.536,1.075,2.189c0.14,0.716,0.169,1.354,0.145,1.954
					c0.907-0.662,1.752-1.412,2.537-2.251c1.562-1.667,2.805-3.609,3.73-5.821c0.926-2.21,1.388-4.544,1.388-7
					C39.949,33.918,39.454,31.388,38.47,29.143z"/>
				<path d="M31.61,52.281c-0.003,0.001-0.006,0.003-0.009,0.004C31.604,52.284,31.607,52.282,31.61,52.281z"/>
				<path d="M32.294,51.806L32.294,51.806c-0.041,0.03-0.083,0.057-0.124,0.087C32.211,51.863,32.253,51.836,32.294,51.806z"/>
				<polygon points="28.045,54.075 28.047,54.074 28.045,54.075 				"/>
				<path d="M29.418,53.51c-0.228,0.107-0.458,0.207-0.688,0.302C28.961,53.718,29.191,53.617,29.418,53.51z"/>
			</g>
		</g>
	</g>
</g>
</svg>
