<?xml version="1.0" encoding="utf-8"?>
<!-- Generator: Adobe Illustrator 22.0.0, SVG Export Plug-In . SVG Version: 6.00 Build 0)  -->
<svg version="1.1" id="Layer_1" xmlns="http://www.w3.org/2000/svg" xmlns:xlink="http://www.w3.org/1999/xlink" x="0px" y="0px"
	 viewBox="0 0 846 294" style="enable-background:new 0 0 846 294;" xml:space="preserve">
<style type="text/css">
	.st0{fill:#FFFFFF;}
</style>
<title>LOGHI_SVG</title>
<path class="st0" d="M716.3,71.1c-32.2,0-58.4,26.1-58.4,58.4s26.1,58.4,58.4,58.4s58.4-26.1,58.4-58.4v0
	C774.7,97.2,748.5,71.1,716.3,71.1z M716.3,164.5c-19.3,0-35-15.7-35-35s15.7-35,35-35s35,15.7,35,35l0,0
	C751.3,148.8,735.6,164.5,716.3,164.5z"/>
<path class="st0" d="M261.6,71.2c-11.8-0.6-23.5,2.4-33.6,8.6c-1.3,0.8-3.1,0.4-3.9-0.9c-0.3-0.5-0.4-1-0.4-1.5V74
	c0-1.6-1.3-2.8-2.8-2.8h-17.6c-1.6,0-2.8,1.3-2.8,2.8c0,0,0,0,0,0v157.7c0,1.6,1.3,2.8,2.8,2.8h17.7c1.6,0,2.8-1.3,2.8-2.8v-50.2
	c0-1.6,1.3-2.8,2.9-2.8c0.5,0,1.1,0.2,1.5,0.4c27.5,16.9,63.4,8.3,80.3-19.1s8.3-63.4-19.1-80.3C280.8,74.6,271.3,71.6,261.6,71.2
	L261.6,71.2z M261,164.4c-19.3,1.2-35.9-13.4-37.2-32.7c-1.2-19.3,13.4-35.9,32.7-37.2c19.3-1.2,35.9,13.4,37.2,32.7
	c0.1,1.5,0.1,3,0,4.5C292.5,149.3,278.6,163.3,261,164.4z"/>
<path class="st0" d="M101.6,117.8c-1.6,0-2.9-1.2-2.9-2.8c0-0.4,0.1-0.9,0.3-1.3c8.7-17.3,29.7-24.2,47-15.5c3.6,1.8,6.8,4.2,9.5,7
	c0.5,0.6,1.3,0.9,2.1,0.9h21.6c1.6,0,2.8-1.3,2.8-2.9c0-0.5-0.1-0.9-0.3-1.3c-15.2-28.4-50.6-39.1-79-23.9
	c-21.9,11.8-34,36.1-30.1,60.7c0.2,1.4,1.4,2.4,2.8,2.4H159c1.6,0,2.8,1.3,2.8,2.8c0,0.4-0.1,0.9-0.3,1.2
	c-8.7,17.3-29.7,24.2-47,15.5c-3.6-1.8-6.8-4.2-9.5-7c-0.5-0.6-1.3-0.9-2.1-0.9H81.4c-1.6,0-2.8,1.3-2.8,2.9c0,0.5,0.1,0.9,0.3,1.3
	c15.2,28.4,50.6,39.1,79,23.9c17.9-9.6,29.6-27.9,30.7-48.2c0.2-4.2,0-8.4-0.6-12.5c-0.2-1.4-1.4-2.4-2.8-2.4L101.6,117.8z"/>
<path class="st0" d="M597.2,94.5c10-0.4,19.8,3.5,26.7,10.7c0.5,0.6,1.3,0.9,2.1,0.9h21.6c1.6,0,2.8-1.3,2.8-2.9
	c0-0.5-0.1-0.9-0.3-1.3c-15.2-28.4-50.6-39.1-79-23.9c-28.4,15.2-39.1,50.6-23.9,79s50.6,39.1,79,23.9c10.2-5.4,18.5-13.8,23.9-23.9
	c0.7-1.4,0.2-3.1-1.2-3.9c-0.4-0.2-0.9-0.3-1.3-0.3h-21.6c-0.8,0-1.5,0.3-2.1,0.9c-13.4,13.9-35.6,14.3-49.5,0.9
	c-13.9-13.4-14.3-35.6-0.9-49.5C579.7,98.7,588.2,94.9,597.2,94.5L597.2,94.5z"/>
<path class="st0" d="M411.9,79.8c-27.4-16.9-63.4-8.4-80.3,19c-16.9,27.4-8.4,63.4,19,80.3c18.8,11.6,42.5,11.6,61.3,0
	c1.3-0.8,3.1-0.4,3.9,0.9c0.3,0.5,0.4,1,0.4,1.5v3.5c0,1.6,1.3,2.8,2.8,2.8h17.7c1.6,0,2.8-1.3,2.8-2.8V74c0-1.6-1.3-2.8-2.8-2.8
	h-17.7c-1.6,0-2.8,1.3-2.8,2.8v3.4c0,1.6-1.3,2.8-2.9,2.8C412.9,80.2,412.4,80.1,411.9,79.8z M381.3,164.5c-19.3,0-35-15.7-35-35
	s15.7-35,35-35s35,15.7,35,35l0,0C416.3,148.8,400.6,164.5,381.3,164.5C381.3,164.5,381.3,164.5,381.3,164.5L381.3,164.5z"/>
<path class="st0" d="M774.7,202.6v17.2c0,1.6-1.3,2.8-2.8,2.8H238.2c-1.6,0-2.8-1.3-2.8-2.8v-17.2c0-1.6,1.3-2.8,2.8-2.8h533.6
	C773.4,199.7,774.7,201,774.7,202.6z"/>
<path class="st0" d="M188.7,202.3V220c0,1.6-1.3,2.8-2.8,2.8h-111c-1.6,0-2.8-1.3-2.8-2.8v-17.7c0-1.6,1.3-2.8,2.8-2.8h111
	C187.4,199.5,188.7,200.8,188.7,202.3z"/>
<path class="st0" d="M545.1,86.3c0.7-1.3,0.4-2.9-0.8-3.7c-19.2-14.2-45-15.2-65.3-2.7c-1.3,0.8-3.1,0.4-3.9-0.9
	c-0.3-0.5-0.4-1-0.4-1.5V74c0-1.6-1.3-2.8-2.8-2.8h-17.6c-1.6,0-2.8,1.3-2.8,2.8c0,0,0,0,0,0v111c0,1.6,1.3,2.8,2.8,2.8h17.7
	c1.6,0,2.8-1.3,2.8-2.8v-54.8c0-19.1,15.1-35.3,34.2-35.7c8.4-0.2,16.5,2.6,23,7.9c1.3,1,3.1,0.8,4.1-0.4c0.1-0.1,0.2-0.3,0.3-0.4
	L545.1,86.3z"/>
<path class="st0" d="M789.7,72.1c2.2-1.6,2.6-4.7,1-6.8c-0.9-1.2-2.4-2-3.9-2h-4.9v15.6h2v-5.9h2.9c1.6,0,2.9,1.3,2.9,2.9v2.9h2V76
	l0,0C791.7,74.5,790.9,73,789.7,72.1z M783.8,71.1v-5.8h2.9c1.6,0,2.9,1.3,2.9,2.9c0,1.6-1.3,2.9-2.9,2.9l0,0L783.8,71.1L783.8,71.1
	z"/>
<path class="st0" d="M786.3,59.5c-6.4,0-11.7,5.2-11.7,11.7c0,6.4,5.2,11.7,11.7,11.7c6.4,0,11.7-5.2,11.7-11.7
	C798,64.7,792.8,59.5,786.3,59.5C786.3,59.5,786.3,59.5,786.3,59.5z M786.3,80.8c-5.4,0-9.7-4.3-9.8-9.7c0-5.4,4.3-9.7,9.7-9.8
	c5.4,0,9.7,4.3,9.8,9.7c0,0,0,0,0,0.1C796,76.5,791.7,80.8,786.3,80.8z"/>
</svg>
