<?xml version="1.0" encoding="utf-8"?>
<!-- Generator: Adobe Illustrator 19.2.1, SVG Export Plug-In . SVG Version: 6.00 Build 0)  -->
<svg version="1.1" id="layer" xmlns="http://www.w3.org/2000/svg" xmlns:xlink="http://www.w3.org/1999/xlink" x="0px" y="0px"
	 viewBox="0 0 652 652" style="enable-background:new 0 0 652 652;" xml:space="preserve">
<style type="text/css">
	.st0{stroke:none;fill-rule:nonzero;fill:rgb(211,211,211);fill-opacity:0.8;}
</style>
<g id="Document" transform="scale(1 -1)">
	<g id="Spread" transform="translate(0 -36)">
		<g id="Layer_1">
			<g id="Group">
				<path marker-end="none" marker-start="none" class="st0" d="M165.7-340.1c-11.9,0-17.3,11.4-17.3,24.5
					c0,13.4,4.9,24.3,17.3,24.3c12.1,0,17.3-10.8,17.3-24.3C183-328.8,177-340.1,165.7-340.1 M183.5-267.5c0-21.2,0-21.2,0-21.2
					s-5.2,7.5-18.3,7.5c-19.6,0-27.4-12.4-27.4-34.9c0-16.5,6.2-34.1,26.9-34.1c15,0,19.1,13.7,19.1,13.7c0-12.4,0-12.4,0-12.4
					c11.6,0,11.6,0,11.6,0c0,81.4,0,81.4,0,81.4H183.5z"/>
				<path class="st0" d="M56.4-316.9c0-12.9-9-23.2-19.1-23.2c-4.6,0-8.8,2.3-9.3,7.5c-0.3,3.6,2.1,5.9,4.9,8
					c3.4,2.1,14.2,6.7,23.5,11.1V-316.9z M46.1-281c-8.3,0-18.1-4.9-22.5-9.8c0-11.1,0-11.1,0-11.1c4.9,4.1,15,9.8,22.2,9.8
					c5.4,0,11.1-1,11.1-8c0-4.6-5.9-5.4-25.3-13.7c-8.5-3.6-13.9-9.3-13.4-18.6c0.3-9.8,8.3-17.8,18.3-17.8
					c13.7,0,20.4,12.9,20.4,12.9c0-11.6,0-11.6,0-11.6c11.6,0,11.6,0,11.6,0c0,48.3,0,48.3,0,48.3C68.6-283.6,54.6-281,46.1-281"/>
				<path marker-end="none" marker-start="none" class="st0" d="M118.2-317.1c0-15.2-4.9-23-16.5-23c-9.6,0-14.2,6.2-14.2,16.8
					c0,41.1,0,41.1,0,41.1c-11.4,0-11.4,0-11.4,0c0-44.4,0-44.4,0-44.4c0-14.5,8.3-22.7,21.4-23.5c11.9-0.8,18.9,5.4,20.7,13.7
					c0-12.4,0-12.4,0-12.4c11.4,0,11.4,0,11.4,0c0,66.6,0,66.6,0,66.6c-11.4,0-11.4,0-11.4,0V-317.1z"/>
				<path marker-end="none" marker-start="none" class="st0" d="M205.5-348.9h11.6v63.5h-11.6V-348.9z"/>
				<path class="st0" d="M238-300.1c0,4.4,4.1,7.5,10.9,7.5c7.7,0,13.4-2.3,18.6-7.5c0,12.7,0,12.7,0,12.7
					c-3.9,3.9-10.9,6.2-18.9,6.2c-9,0-22.7-4.1-22.2-20.4c0.3-19.6,34.1-16.3,34.1-28.4c0-5.4-4.6-8.8-13.4-8.8
					c-6.5,0-14.2,3.4-20.1,11.4c0-16,0-16,0-16c2.6-2.8,8.8-6.7,20.1-6.7c19.9,0,25.8,13.4,23.8,24.3
					C266.9-305.5,238-311.7,238-300.1"/>
				<path class="st0" d="M305.7-340.1c-14.2-0.3-17.6,13.9-17.3,24.3c0.8,13.7,4.4,24.3,17,24.3c0.5,0,0.5,0,0.5,0
					c12.9-0.3,17-11.1,17-24.5C323-329.5,319.6-339.9,305.7-340.1 M305.9-281.2c-0.5,0-0.5,0-0.5,0c-21.4,0-28.7-13.2-28.7-34.1
					c0-21.7,7.5-35.1,29.2-35.1c20.9,0,28.4,12.7,28.4,34.4C334.3-295.4,327.6-281.2,305.9-281.2"/>
				<path class="st0" d="M376.7-281c-13.2,0.8-18.9-4.9-23.2-12.7c0,11.4,0,11.4,0,11.4c-11.4,0-11.4,0-11.4,0c0-66.6,0-66.6,0-66.6
					c11.4,0,11.4,0,11.4,0c0,36.2,0,36.2,0,36.2c0,15.5,10.1,23.8,23,20.9c8.3-2.6,7.7-11.6,7.7-11.6c0-45.5,0-45.5,0-45.5
					c11.1,0,11.1,0,11.1,0c0,48.3,0,48.3,0,48.3C395-289,387.8-281.5,376.7-281"/>
				<path class="st0" d="M215.8-268.6c-1.3,0.8-2.8,1-4.7,1c-1.5,0-3.1-0.3-4.4-1c-2.1-1-3.6-3.4-3.6-5.7c0-2.6,1.6-4.9,3.6-5.9
					c1.3-0.8,2.8-1,4.4-1c1.8,0,3.4,0.3,4.7,1c2.1,1,3.4,3.4,3.4,5.9C219.1-271.9,217.9-269.6,215.8-268.6"/>
				<path class="st0" d="M615.6-343c0,1.6,0,1.6,0,1.6c0,1.8-0.3,2.8-0.5,3.6c-0.3,0.5-0.8,1-1.5,1.3c-0.5,0-1.6,0.3-3.1,0.3
					c-2.6,0-2.6,0-2.6,0c-2.1,0-3.4-0.3-3.9-0.8c-0.8-0.5-1-2.1-1-4.4c0-1.6,0-1.6,0-1.6c0-2.1,0.3-3.6,1-4.1
					c0.5-0.5,1.8-0.5,3.9-0.5c2.6,0,2.6,0,2.6,0c1.5,0,2.6,0,3.1,0c0.8,0.3,1.3,0.8,1.5,1.3C615.3-345.5,615.6-344.5,615.6-343
					 M618.2-343c0-2.3-0.3-3.9-0.8-4.9c-0.5-1-1.3-1.8-2.3-2.1c-1-0.3-2.6-0.5-4.6-0.5c-2.8,0-2.8,0-2.8,0c-2.1,0-3.6,0.3-4.6,0.5
					c-1,0.5-1.8,1.3-2.1,2.6c-0.5,1-0.5,2.6-0.5,5.2c0,2.3,0,4.1,0.3,5.2c0.5,1.3,1.3,2.3,2.3,2.8c1,0.5,2.6,0.5,4.6,0.5
					c2.8,0,2.8,0,2.8,0c2.6,0,4.1-0.3,5.2-0.8c1-0.5,1.8-1.6,2.1-2.8C617.9-338.3,618.2-340.1,618.2-343"/>
				<path marker-end="none" marker-start="none" class="st0" d="M428.3-327h2.6v16.8h-2.6V-327z"/>
				<path class="st0" d="M454.4-322c0-1.8-0.5-3.1-1.3-3.9c-0.8-0.8-2.1-1-3.9-1c-7.5,0-7.5,0-7.5,0c-3.4,0-5.2,1.6-5.2,4.7
					c2.6,0,2.6,0,2.6,0c0-1.3,1-2.1,2.8-2.1c6.7,0,6.7,0,6.7,0c1,0,1.6,0,2.1,0.3c0.5,0.5,0.8,1,0.8,2.1c0,1-0.5,1.8-1.6,2.3
					c-0.5,0-1.5,0.3-2.6,0.3c-0.5,0-1.3,0-2.3,0c-1,0-1.6-0.3-2.1-0.3c-2.1,0-3.6,0.5-4.4,1c-1.5,0.5-2.1,2.1-2.1,3.9
					s0.5,2.8,1.3,3.6c0.8,0.8,2.1,1,3.6,1c7.5,0,7.5,0,7.5,0c3.6,0,5.4-1.6,5.4-4.6c-2.8,0-2.8,0-2.8,0c0,1.3-1,2.1-2.8,2.1
					c-7,0-7,0-7,0c-1.6,0-2.3-0.8-2.3-2.1c0-1.6,1.6-2.3,4.4-2.3c0.3,0,1,0,2.1,0c0.8,0,1.6,0.3,1.8,0.3c2.1,0,3.6-0.5,4.6-1
					C453.7-318.7,454.4-320,454.4-322"/>
				<path marker-end="none" marker-start="none" class="st0" d="M474.3-312.7h-7V-327h-2.6v14.2h-7v2.6h16.5V-312.7z"/>
				<path marker-end="none" marker-start="none" class="st0" d="M479.5-327h2.6v16.8h-2.6V-327z"/>
				<path marker-end="none" marker-start="none" class="st0" d="M502.2-327c0,10.1,0,10.1,0,10.1c0,1.3-0.5,2.3-1.3,3.1
					c-0.5,0.8-1.6,1-2.8,1c-3.1,0-3.1,0-3.1,0c-1.3,0-2.3-0.3-3.1-1c-0.8-0.8-1-1.8-1-3.1c0-10.1,0-10.1,0-10.1c-2.6,0-2.6,0-2.6,0
					c0,16.8,0,16.8,0,16.8c2.6,0,2.6,0,2.6,0c0-2.1,0-2.1,0-2.1c0.8,1.3,2.3,2.1,4.1,2.1c3.1,0,3.1,0,3.1,0c2.1,0,3.6-0.5,4.9-1.8
					c1.3-1.3,1.8-2.8,1.8-5.2c0-9.8,0-9.8,0-9.8H502.2z"/>
				<path marker-end="none" marker-start="none" class="st0" d="M524.2-312.7h-7V-327h-2.6v14.2h-7v2.6h16.5V-312.7z"/>
				<path class="st0" d="M542.2-319.5c0,1.6,0,1.6,0,1.6c0,1.8-0.3,2.8-0.5,3.6c-0.3,0.5-0.8,1-1.5,1.3c-0.5,0-1.5,0.3-3.1,0.3
					c-2.3,0-2.3,0-2.3,0c-2.1,0-3.4-0.3-4.1-0.8c-0.5-0.5-0.8-2.1-0.8-4.4c0-1.6,0-1.6,0-1.6c0-2.1,0.3-3.6,1-4.1
					c0.5-0.5,1.8-0.5,3.6-0.5c2.8,0,2.8,0,2.8,0c1.3,0,2.3,0,2.8,0c0.8,0.3,1.3,0.8,1.5,1.3C542-322,542.2-321,542.2-319.5
					 M544.8-319.5c0-2.3-0.3-3.9-0.8-4.9c-0.5-1-1.3-1.8-2.3-2.1c-1-0.3-2.3-0.5-4.4-0.5c-2.8,0-2.8,0-2.8,0c-2.1,0-3.6,0.3-4.6,0.5
					c-1,0.5-1.8,1.3-2.1,2.6c-0.5,1-0.5,2.6-0.5,5.2c0,2.3,0,4.1,0.3,5.2c0.5,1.3,1.3,2.3,2.3,2.8c0.8,0.5,2.6,0.5,4.6,0.5
					c2.8,0,2.8,0,2.8,0c2.3,0,4.1-0.3,5.2-0.8c1-0.5,1.6-1.6,2.1-2.8C544.8-314.8,544.8-316.6,544.8-319.5"/>
				<path marker-end="none" marker-start="none" class="st0" d="M428.3-350.5h2.6v16.8h-2.6V-350.5z"/>
				<path marker-end="none" marker-start="none" class="st0" d="M451.1-350.5c0,10.1,0,10.1,0,10.1c0,1.3-0.3,2.3-1,3.1
					c-0.8,0.8-1.8,1-3.1,1c-3.1,0-3.1,0-3.1,0c-1.3,0-2.1-0.3-2.8-1c-1-0.8-1.3-1.8-1.3-3.1c0-10.1,0-10.1,0-10.1
					c-2.6,0-2.6,0-2.6,0c0,16.8,0,16.8,0,16.8c2.6,0,2.6,0,2.6,0c0-2.1,0-2.1,0-2.1c1,1.3,2.3,2.1,4.1,2.1c3.1,0,3.1,0,3.1,0
					c2.1,0,3.9-0.5,4.9-1.8c1.3-1.3,1.8-2.8,1.8-5.2c0-9.8,0-9.8,0-9.8H451.1z"/>
				<path marker-end="none" marker-start="none" class="st0" d="M473.5-350.5c0,10.1,0,10.1,0,10.1c0,1.3-0.3,2.3-1,3.1
					c-0.8,0.8-1.8,1-2.8,1c-3.4,0-3.4,0-3.4,0c-1,0-2.1-0.3-2.8-1c-0.8-0.8-1.3-1.8-1.3-3.1c0-10.1,0-10.1,0-10.1
					c-2.6,0-2.6,0-2.6,0c0,16.8,0,16.8,0,16.8c2.6,0,2.6,0,2.6,0c0-2.1,0-2.1,0-2.1c1,1.3,2.3,2.1,4.1,2.1c3.4,0,3.4,0,3.4,0
					c2.1,0,3.6-0.5,4.9-1.8c1-1.3,1.8-2.8,1.8-5.2c0-9.8,0-9.8,0-9.8H473.5z"/>
				<path class="st0" d="M497.6-343c0,1.6,0,1.6,0,1.6c0,1.8-0.3,2.8-0.5,3.6c-0.3,0.5-0.8,1-1.6,1.3c-0.5,0-1.5,0.3-3.1,0.3
					c-2.6,0-2.6,0-2.6,0c-2.1,0-3.4-0.3-4.1-0.8c-0.5-0.5-0.8-2.1-0.8-4.4c0-1.6,0-1.6,0-1.6c0-2.1,0.3-3.6,1-4.1
					c0.5-0.5,1.8-0.5,3.9-0.5c2.6,0,2.6,0,2.6,0c1.6,0,2.6,0,3.1,0c0.8,0.3,1.3,0.8,1.6,1.3C497.3-345.5,497.6-344.5,497.6-343
					 M500.1-343c0-2.3-0.3-3.9-0.8-4.9c-0.5-1-1.3-1.8-2.6-2.1c-0.8-0.3-2.3-0.5-4.4-0.5c-2.8,0-2.8,0-2.8,0c-2.1,0-3.6,0.3-4.6,0.5
					c-1,0.5-1.8,1.3-2.1,2.6c-0.5,1-0.8,2.6-0.8,5.2c0,2.3,0.3,4.1,0.5,5.2c0.5,1.3,1,2.3,2.3,2.8c0.8,0.5,2.6,0.5,4.6,0.5
					c2.8,0,2.8,0,2.8,0c2.3,0,4.1-0.3,5.2-0.8c1-0.5,1.8-1.6,2.1-2.8C499.9-338.3,500.1-340.1,500.1-343"/>
				<path marker-end="none" marker-start="none" class="st0" d="M523.1-333.7l-7.5-16.8h-4.1l-7.8,16.8h3.1l6.7-14.5l0.3,0.3
					l6.5,14.2H523.1z"/>
				<path marker-end="none" marker-start="none" class="st0" d="M529.9-340.4c12.4,0,12.4,0,12.4,0c0,1.8-0.5,3.1-1,3.6
					c-0.5,0.3-1.8,0.5-3.6,0.5c-3.1,0-3.1,0-3.1,0c-1.8,0-3.1-0.3-3.6-0.5C530.1-337.5,529.9-338.6,529.9-340.4 M542.2-343
					c-12.4,0-12.4,0-12.4,0c0-7.5,0-7.5,0-7.5c-2.6,0-2.6,0-2.6,0c0,10.1,0,10.1,0,10.1c0,2.6,0.5,4.6,1.5,5.4
					c0.8,1,2.6,1.3,5.2,1.3c3.9,0,3.9,0,3.9,0c2.6,0,4.4-0.5,5.4-1.3c1-1,1.5-2.8,1.5-5.4c0-10.1,0-10.1,0-10.1c-2.6,0-2.6,0-2.6,0
					V-343z"/>
				<path marker-end="none" marker-start="none" class="st0" d="M565-336.2h-7v-14.2h-2.6v14.2h-6.7v2.6H565V-336.2z"/>
				<path marker-end="none" marker-start="none" class="st0" d="M570.1-350.5h2.6v16.8h-2.6V-350.5z"/>
				<path marker-end="none" marker-start="none" class="st0" d="M597.3-333.7l-7.8-16.8h-4.1l-7.7,16.8h3.1l6.7-14.5l0.3,0.3
					l6.5,14.2H597.3z"/>
			</g>
		</g>
	</g>
</g>
</svg>
