<?xml version="1.0" encoding="utf-8"?>
<!-- Generator: Adobe Illustrator 19.2.1, SVG Export Plug-In . SVG Version: 6.00 Build 0)  -->
<svg version="1.1" id="layer" xmlns="http://www.w3.org/2000/svg" xmlns:xlink="http://www.w3.org/1999/xlink" x="0px" y="0px"
	 viewBox="0 0 652 652" style="enable-background:new 0 0 652 652;" xml:space="preserve">
<style type="text/css">
	.st0{fill:#A9A9A9;}
</style>
<g>
	<path d="M177.5,307.3c0.8,0,1.5-0.7,1.5-1.5v-0.6c0-0.8-0.7-1.5-1.5-1.5h-21.4c-0.8,0-1.5,0.7-1.5,1.5v0.6c0,0.8,0.7,1.5,1.5,1.5
		h0.2v40.2c-2.2,0.9-6.8,2.3-13.1,2.2c-14.2-0.4-22.1-9.8-30.8-15.5c-8.6-5.6-15.7-7.7-22.8-7.7c-5.3,0-9.9,1.7-11.9,2.6l-0.1,0
		v-21.9h0.2c0.8,0,1.5-0.7,1.5-1.5v-0.6c0-0.8-0.7-1.5-1.5-1.5H56.3c-0.8,0-1.5,0.7-1.5,1.5v0.6c0,0.8,0.6,1.5,1.5,1.5h0.2v76.8
		h-0.2c-0.8,0-1.5,0.6-1.5,1.5v0.6c0,0.8,0.6,1.5,1.5,1.5h0.2h21h0.2c0.8,0,1.5-0.7,1.5-1.5v-0.6c0-0.8-0.7-1.5-1.5-1.5h-0.2v-35.2
		l0.1,0c1.8-0.9,6.1-2.9,12.9-2.8c12.1,0.1,20.1,8.2,26.9,13.2c5.2,3.8,12.8,7.7,25.1,8.5c6.2,0.4,10.8-0.8,13.8-2v18.3h-0.2
		c-0.8,0-1.5,0.6-1.5,1.5v0.6c0,0.8,0.7,1.5,1.5,1.5h0.2h21h0h0.2c0.8,0,1.5-0.7,1.5-1.5v-0.6c0-0.8-0.7-1.5-1.5-1.5h-0.2v-76.8
		H177.5z" fill="#D3D3D3"/>
	<path class="st0" d="M170.9,355.5c-3.2,2.6-13.2,10.2-26.9,10.2c-13.7,0-23-6.3-27.6-9.7c-3.4-2.5-12.3-12.1-26.5-12.3
		C76.4,343.4,63,355.9,63,355.9v-14.4c1.3-1.3,12.9-12.6,27-12.4c14.2,0.2,24.7,9.5,28.2,11.9c3.5,2.4,12.2,11.3,25.9,11.3
		c13.7,0,23.7-8.1,26.8-10.7V355.5L170.9,355.5z" fill="#D3D3D3"/>
	<path d="M297.2,375.5h-0.6c-0.8,0-1.5,0.7-1.5,1.5v0.3H220V351h61.3v0.1c0,0.8,0.7,1.5,1.5,1.5h0.6c0.8,0,1.5-0.7,1.5-1.5v-10.7
		c0-0.8-0.7-1.5-1.5-1.5h-0.6c-0.8,0-1.5,0.6-1.5,1.5v0.1H220v-26.3h75.1v0.3c0,0.8,0.7,1.5,1.5,1.5h0.6c0.8,0,1.5-0.7,1.5-1.5v-0.3
		v-10.5H220h-5.2h-16c-0.8,0-1.5,0.7-1.5,1.5v0.6c0,0.8,0.7,1.5,1.5,1.5h0.2v76.8h-0.2c-0.8,0-1.5,0.6-1.5,1.5v0.6
		c0,0.8,0.7,1.5,1.5,1.5h0.2h15.8h5.2h78.7v-10.5V377C298.7,376.1,298,375.5,297.2,375.5" fill="#D3D3D3"/>
	<path d="M336.2,314.2h35.1c8.3-0.2,25.4,1.9,25.4,14.2v0.3c0,11.2-17.1,14.4-25.5,14.3h-35V314.2z M425.1,384.1h-0.4l-34.4-31.8
		c11.1-2.6,24.9-9.3,24.9-23.1v-0.6c0-20.7-25.1-24.9-34.8-24.9h-44h-0.2h-10.1h-10.9h-0.2c-0.8,0-1.5,0.7-1.5,1.5v0.6
		c0,0.8,0.6,1.5,1.5,1.5h0.2v76.8h-0.2c-0.8,0-1.5,0.6-1.5,1.5v0.6c0,0.8,0.6,1.5,1.5,1.5h0.2h21h0.2c0.8,0,1.5-0.7,1.5-1.5v-0.6
		c0-0.8-0.6-1.5-1.5-1.5h-0.2v-30.5h35.6l35.3,34.1h3.9h13.8h0.4c0.8,0,1.5-0.7,1.5-1.5v-0.6C426.5,384.8,425.9,384.1,425.1,384.1"
		fill="#D3D3D3"/>
	<path d="M422,303.7l0,10.7c0,0.8,0.7,1.5,1.5,1.5h0.6c0.8,0,1.5-0.6,1.5-1.5v-0.2h44.7v69.9H470c-0.8,0-1.5,0.6-1.5,1.5v0.6
		c0,0.8,0.7,1.5,1.5,1.5h0.2h21h0.2c0.8,0,1.5-0.7,1.5-1.5v-0.6c0-0.8-0.6-1.5-1.5-1.5h-0.2v-69.9h44.7v0.2c0,0.8,0.7,1.5,1.5,1.5
		h0.6c0.8,0,1.5-0.6,1.5-1.5v-0.2v-10.5H422z" fill="#D3D3D3"/>
	<path d="M653.4,375.5h-0.6c-0.8,0-1.5,0.7-1.5,1.5v0.3h-85.9l89.4-63h0.1v-10.5H549.9v10.5v0.2c0,0.8,0.7,1.5,1.5,1.5h0.6
		c0.8,0,1.5-0.6,1.5-1.5v-0.2l75.2,0l-89.3,63v0l0,0h0v10.5h115.5v-7.1v-3.4V377C654.9,376.2,654.2,375.5,653.4,375.5" fill="#D3D3D3"/>
</g>
</svg>
